<svg width="36" height="40" viewBox="0 0 36 40" fill="none" xmlns="http://www.w3.org/2000/svg">
<g id="&#240;&#159;&#166;&#134; icon &#34;notification bing&#34;">
<g id="Group">
<path id="Vector" d="M17.9908 10.4807V16.0914" stroke="#8A879A" stroke-width="5" stroke-miterlimit="10" stroke-linecap="round"/>
<path id="Vector_2" d="M18.0248 3C11.8244 3 6.80341 8.02099 6.80341 14.2214V17.7597C6.80341 18.9054 6.33164 20.624 5.74193 21.6012L3.60211 25.1732C2.28789 27.3804 3.19774 29.8404 5.62399 30.6491C13.6778 33.3281 22.3887 33.3281 30.4425 30.6491C32.7171 29.8909 33.6943 27.2288 32.4643 25.1732L30.3245 21.6012C29.7348 20.624 29.263 18.8886 29.263 17.7597V14.2214C29.2462 8.05469 24.1915 3 18.0248 3Z" stroke="#8A879A" stroke-width="5" stroke-miterlimit="10" stroke-linecap="round"/>
<path id="Vector_3" d="M23.6018 31.34C23.6018 34.4233 21.0745 36.9507 17.9911 36.9507C16.4579 36.9507 15.0426 36.3104 14.0317 35.2995C13.0208 34.2885 12.3805 32.8732 12.3805 31.34" stroke="#8A879A" stroke-width="5" stroke-miterlimit="10"/>
</g>
</g>
</svg>
