<svg width="40" height="41" viewBox="0 0 40 41" fill="none" xmlns="http://www.w3.org/2000/svg">
<g id="&#240;&#159;&#166;&#134; icon &#34;back square&#34;">
<path id="Vector" d="M28.3941 0H11.6258C4.34216 0 0 4.34216 0 11.6258V28.3741C0 35.6778 4.34216 40.0199 11.6258 40.0199H28.3741C35.6578 40.0199 39.9999 35.6778 39.9999 28.3941V11.6258C40.0199 4.34216 35.6778 0 28.3941 0ZM23.8519 28.2741H14.007C13.1866 28.2741 12.5062 27.5938 12.5062 26.7733C12.5062 25.9529 13.1866 25.2726 14.007 25.2726H23.8519C26.4132 25.2726 28.5142 23.1916 28.5142 20.6103C28.5142 18.029 26.4332 15.9479 23.8519 15.9479H13.7068L14.2271 16.4682C14.8074 17.0685 14.8074 18.009 14.2071 18.6093C13.9069 18.9094 13.5267 19.0495 13.1466 19.0495C12.7664 19.0495 12.3862 18.9094 12.086 18.6093L8.94446 15.4477C8.36417 14.8674 8.36417 13.9069 8.94446 13.3266L12.086 10.1851C12.6663 9.60479 13.6268 9.60479 14.2071 10.1851C14.7874 10.7654 14.7874 11.7258 14.2071 12.3061L13.5468 12.9665H23.8519C28.074 12.9665 31.5157 16.4082 31.5157 20.6303C31.5157 24.8524 28.074 28.2741 23.8519 28.2741Z" fill="#857D7D"/>
</g>
</svg>
