<svg width="20" height="23" viewBox="0 0 20 23" fill="none" xmlns="http://www.w3.org/2000/svg">
<g id="&#240;&#159;&#166;&#134; icon &#34;xrp (xrp)&#34;">
<g id="Group">
<path id="Vector" d="M2.73058 0H1.16448C0.131544 0 -0.390467 1.25508 0.342586 1.98813L6.70679 8.35236C8.52834 10.1739 11.4717 10.1739 13.2932 8.35236L19.6574 1.98813C20.3905 1.25508 19.8684 0 18.8355 0H17.2694C16.3476 0 15.459 0.366527 14.8037 1.02183L10.8275 4.99809C10.3721 5.45347 9.63903 5.45347 9.18365 4.99809L5.20739 1.02183C4.54098 0.366527 3.65245 0 2.73058 0Z" fill="#A7A4B2"/>
<path id="Vector_2" d="M2.73058 22.1788H1.16448C0.131544 22.1788 -0.390467 20.9239 0.342586 20.1908L6.70679 13.8266C8.52834 12.0051 11.4717 12.0051 13.2932 13.8266L19.6574 20.1908C20.3905 20.9239 19.8684 22.1788 18.8355 22.1788H17.2694C16.3476 22.1788 15.459 21.8123 14.8037 21.157L10.8275 17.1808C10.3721 16.7254 9.63903 16.7254 9.18365 17.1808L5.20739 21.157C4.54098 21.8123 3.65245 22.1788 2.73058 22.1788Z" fill="#A7A4B2"/>
</g>
</g>
</svg>
