<svg width="40" height="40" viewBox="0 0 40 40" fill="none" xmlns="http://www.w3.org/2000/svg">
<path opacity="0.58" d="M40 0H0V40H40V0Z" fill="white"/>
<path d="M20.3333 9.78331C20.2167 9.78331 20.1 9.78331 20 9.79998V3.34996C20.1167 3.3333 20.2167 3.33331 20.3333 3.33331C24.1 3.33331 27.3333 4.48331 29.9833 6.43331C30.8167 7.03331 30.8833 8.24998 30.15 8.96665L27.8333 11.2333C27.2667 11.7833 26.4 11.8833 25.75 11.4333C24.5 10.5666 22.7167 9.78331 20.3333 9.78331Z" fill="#0487F2"/>
<path d="M36.3333 20.3662C36.3333 25.4495 34.5167 29.7162 31.3667 32.6328C28.6167 35.1828 24.8333 36.6662 20.3333 36.6662C20.2167 36.6662 20.1167 36.6662 20 36.6495V30.1995C20.1167 30.2162 20.2167 30.2162 20.3333 30.2162C22.8167 30.2162 24.7 29.5328 26.1167 28.5495C28.3333 26.9995 29.3333 24.6828 29.5167 23.1495H22C21.0833 23.1495 20.3333 22.3995 20.3333 21.4828V18.6328C20.3333 17.7162 21.0833 16.9662 22 16.9662H34.5833C35.4333 16.9662 36.15 17.5995 36.2333 18.4495C36.3 19.0328 36.3333 19.6495 36.3333 20.3662Z" fill="#0487F2"/>
<path opacity="0.4" d="M10.832 16.6997C10.4986 17.733 10.2986 18.8497 10.2986 19.9997C10.2986 21.1497 10.4986 22.2497 10.8486 23.2997C12.1486 27.2163 15.7486 30.0663 19.9986 30.1997V36.6497C13.632 36.533 8.14862 32.833 5.46528 27.483H5.44862C4.31528 25.2163 3.66528 22.683 3.66528 19.9997C3.66528 17.3163 4.31528 14.7829 5.44862 12.5163C8.13195 7.16628 13.6153 3.46628 19.9986 3.34961V9.79963C16.0653 9.91629 12.7153 12.3496 11.182 15.7996C11.0486 16.0996 10.932 16.3996 10.832 16.6997Z" fill="#0487F2"/>
</svg>
