<svg xmlns="http://www.w3.org/2000/svg" viewBox="0 0 239.5 60.46"><title>Mercado Pago logo - Brandlogos.net</title><path d="M307.93,354.9c-23.67,0-42.87,12.28-42.87,27.42s19.2,28.61,42.87,28.61,42.87-13.46,42.87-28.61S331.62,354.9,307.93,354.9Z" transform="translate(-264.25 -353.77)" style="fill:#00b1ea"/><path d="M294,373.84s-.44.47-.17.82c.66.85,2.71,1.33,4.78.87,1.23-.28,2.82-1.53,4.34-2.75a17.47,17.47,0,0,1,5-3.16,5.69,5.69,0,0,1,3.62-.1,11.3,11.3,0,0,1,3.3,1.93c2.87,2.16,14.43,12.24,16.43,14a110.59,110.59,0,0,1,19-6c-.85-5.17-4-10.11-8.74-14-6.66,2.8-15.34,4.47-23.3.59a22,22,0,0,0-8.59-1.95c-6.31.15-9.05,2.88-11.94,5.77Z" transform="translate(-264.25 -353.77)" style="fill:#fff"/><path d="M330.77,386.55c-.14-.12-13.58-11.89-16.64-14.18a7.48,7.48,0,0,0-3.77-1.79,5.39,5.39,0,0,0-1.8.17,16.31,16.31,0,0,0-4.92,2.93c-1.7,1.36-3.31,2.64-4.8,3a7.75,7.75,0,0,1-5.29-.79,2.37,2.37,0,0,1-.88-1,1.62,1.62,0,0,1,.45-1.76l3.72-4,1.31-1.29a24.84,24.84,0,0,0-3.38.76,14.93,14.93,0,0,1-4,.74,37.85,37.85,0,0,1-4-.63,66,66,0,0,1-11.57-3.87c-5.28,3.93-8.72,8.75-9.74,14.16.76.2,2.74.65,3.26.77,11.94,2.66,15.66,5.39,16.34,6a3.95,3.95,0,0,1,6.19.36,4.55,4.55,0,0,1,2.85-1,5.39,5.39,0,0,1,1.7.3,3.88,3.88,0,0,1,2.4,2.17,4,4,0,0,1,1.66-.35,5,5,0,0,1,2,.44,4.23,4.23,0,0,1,2.35,4.73,3.49,3.49,0,0,1,.47,0,4.73,4.73,0,0,1,4.17,7,7.51,7.51,0,0,0,4.11,1.1,2.65,2.65,0,0,0,1.93-.84c.12-.17.25-.36.13-.5l-3.37-3.74s-.56-.52-.37-.73.54.09.77.29c1.71,1.44,3.8,3.59,3.8,3.59s.17.3,1,.44a3.51,3.51,0,0,0,2.67-.62,5.25,5.25,0,0,0,.59-.6l0,0a1.78,1.78,0,0,0-.1-2.22L316,391.13s-.57-.52-.37-.73.54.1.78.3c1.24,1,3,2.81,4.69,4.46a3.2,3.2,0,0,0,3.77-.13,2.69,2.69,0,0,0,1.39-2.46,2.83,2.83,0,0,0-.84-1.64l-5.38-5.4s-.57-.48-.36-.73.54.09.77.29c1.71,1.44,6.34,5.68,6.34,5.68a3.26,3.26,0,0,0,3.64-.07,2.45,2.45,0,0,0,1.2-1.93A2.7,2.7,0,0,0,330.77,386.55Z" transform="translate(-264.25 -353.77)" style="fill:#fff"/><path d="M304.71,393.39a10.73,10.73,0,0,0-1.86.42c-.06,0,.05-.37.13-.57s1.18-3.49-1.5-4.64a3.15,3.15,0,0,0-3.73.56c-.11.12-.16.11-.17,0a3,3,0,0,0-2.08-2.74,4,4,0,0,0-4.56,1.63,2.91,2.91,0,1,0-.87,2.49s0,0,0,.1a3.85,3.85,0,0,0,2.41,4.43,2.88,2.88,0,0,0,2.83-.44c.24-.16.27-.1.24.13-.1.67,0,2.13,2.06,2.95a2.61,2.61,0,0,0,3.06-.57c.26-.24.33-.2.34.17a3.69,3.69,0,1,0,3.7-3.87Z" transform="translate(-264.25 -353.77)" style="fill:#fff"/><path d="M307.93,353.77c-24.12,0-43.68,12.83-43.68,28.57V384c0,16.7,17.1,30.22,43.68,30.22,26.75,0,43.68-13.52,43.68-30.22v-1.67C351.61,366.6,332.05,353.77,307.93,353.77Zm41.71,25.4a100,100,0,0,0-18.35,6c-4.15-3.62-13.72-11.94-16.31-13.89a11.47,11.47,0,0,0-3.39-2,5.67,5.67,0,0,0-1.66-.26,7,7,0,0,0-2.11.35,17.14,17.14,0,0,0-5,3.14l-.09.06c-1.5,1.2-3.06,2.43-4.24,2.7a7,7,0,0,1-1.56.17,4,4,0,0,1-2.95-1c-.07-.1,0-.25.15-.46l0,0,3.64-3.93c2.86-2.86,5.55-5.55,11.76-5.7h.31a22.17,22.17,0,0,1,8.16,1.93A25.21,25.21,0,0,0,329.19,369a29,29,0,0,0,12.18-2.91C345.81,369.8,348.74,374.29,349.64,379.17Zm-41.71-23.72c12.8,0,24.26,3.67,32,9.45a27,27,0,0,1-10.7,2.42,23.65,23.65,0,0,1-10.41-2.51,23.39,23.39,0,0,0-8.88-2.1h-.35a15.34,15.34,0,0,0-10.12,3.6,20.17,20.17,0,0,0-5.06.92,13.8,13.8,0,0,1-3.56.69c-.46,0-1.27,0-1.35,0a69.45,69.45,0,0,1-12.76-3.53C284.4,358.9,295.54,355.46,307.93,355.46Zm-32.73,10c5.32,2.17,11.79,3.87,13.84,4,.57,0,1.18.11,1.79.11a14.78,14.78,0,0,0,4-.75c.77-.21,1.63-.45,2.53-.62-.24.24-.48.47-.72.72l-3.71,4a1.86,1.86,0,0,0-.5,2,2.62,2.62,0,0,0,1,1.08,7.75,7.75,0,0,0,3.93,1,7.23,7.23,0,0,0,1.56-.16c1.55-.34,3.18-1.65,4.91-3a16.3,16.3,0,0,1,4.82-2.88,5.32,5.32,0,0,1,1.35-.18,1.73,1.73,0,0,1,.34,0,7.35,7.35,0,0,1,3.65,1.74c3,2.28,16.5,14.05,16.62,14.17a2.59,2.59,0,0,1,.8,2,2.16,2.16,0,0,1-1.07,1.71,3.28,3.28,0,0,1-1.77.55,2.9,2.9,0,0,1-1.56-.45c-.05,0-4.66-4.26-6.35-5.69a1.43,1.43,0,0,0-.79-.43.48.48,0,0,0-.35.16c-.27.33,0,.78.39,1.08l5.39,5.41a2.57,2.57,0,0,1,.75,1.46,2.44,2.44,0,0,1-1.27,2.23,3.46,3.46,0,0,1-1.91.63,2.69,2.69,0,0,1-1.53-.47l-.77-.76c-1.41-1.39-2.87-2.83-3.94-3.72a1.43,1.43,0,0,0-.8-.42.44.44,0,0,0-.34.15c-.12.14-.2.37.1.78a2.43,2.43,0,0,0,.27.3l3.93,4.41a1.5,1.5,0,0,1,.09,1.89l-.14.17c-.12.13-.25.25-.36.35a3.18,3.18,0,0,1-1.92.61,2.79,2.79,0,0,1-.54,0,1.33,1.33,0,0,1-.77-.32l-.05-.05c-.21-.22-2.2-2.24-3.83-3.61a1.34,1.34,0,0,0-.76-.41.46.46,0,0,0-.35.16c-.32.35.16.89.37,1.08l3.35,3.7a.63.63,0,0,1-.13.22c-.12.16-.52.57-1.75.73a3.15,3.15,0,0,1-.45,0,7.66,7.66,0,0,1-3.28-1,5,5,0,0,0-4.51-7.12h-.18A4.43,4.43,0,0,0,302,387.4a5.34,5.34,0,0,0-2.09-.46,4.31,4.31,0,0,0-1.53.28,4.21,4.21,0,0,0-2.44-2.08,5.39,5.39,0,0,0-1.8-.31,4.7,4.7,0,0,0-2.8.9,4.24,4.24,0,0,0-3.29-1.59,4.3,4.3,0,0,0-3,1.23c-1-.79-5.18-3.43-16.26-5.95-.52-.12-1.72-.46-2.49-.69C267.36,373.76,270.52,369.22,275.2,365.49Zm20.54,28.84-.12-.11h-.12a.62.62,0,0,0-.34.14,2.86,2.86,0,0,1-1.66.59,2.61,2.61,0,0,1-.92-.18,3.58,3.58,0,0,1-2.24-4.16.37.37,0,0,0-.11-.34l-.18-.15-.17.16a2.67,2.67,0,1,1,.78-2.26l.1.72.4-.61a3.91,3.91,0,0,1,3.11-1.7,4.07,4.07,0,0,1,1.16.18,2.7,2.7,0,0,1,1.89,2.51c0,.34.28.36.32.36a.44.44,0,0,0,.31-.16,2.69,2.69,0,0,1,2-.82,3.63,3.63,0,0,1,1.47.33c2.51,1.08,1.37,4.26,1.36,4.3-.21.52-.23.76,0,.9l.1,0h.07a1.53,1.53,0,0,0,.48-.13,4.33,4.33,0,0,1,1.34-.3,3.47,3.47,0,0,1,3.43,3.43,3.42,3.42,0,0,1-6.84.15c0-.16,0-.58-.37-.58a.68.68,0,0,0-.42.21,2.41,2.41,0,0,1-1.68.76,2.88,2.88,0,0,1-1.1-.24c-1.95-.79-2-2.13-1.9-2.67A.38.38,0,0,0,295.74,394.33Zm12.19,14.87c-23.2,0-42-12-42-26.88,0-.6,0-1.19.1-1.78l2.41.57c11.31,2.52,15,5.13,15.68,5.62A4.25,4.25,0,0,0,288,392.6a3.88,3.88,0,0,0,.78-.07,5,5,0,0,0,3.2,3.7,4.2,4.2,0,0,0,1.51.29,4.24,4.24,0,0,0,1-.12,4.92,4.92,0,0,0,4.3,2.81,3.6,3.6,0,0,0,1.3-.24,5,5,0,0,0,8.19,1.59,9.34,9.34,0,0,0,4.23,1.26,4.24,4.24,0,0,0,.64,0,3.9,3.9,0,0,0,2.87-1.4,1.88,1.88,0,0,0,.18-.29,4.76,4.76,0,0,0,1.36.21,4.58,4.58,0,0,0,2.73-1,3.81,3.81,0,0,0,1.62-2.35v0a4.38,4.38,0,0,0,.91.1,5.08,5.08,0,0,0,2.81-.89,4,4,0,0,0,2-3.61,4.58,4.58,0,0,0,.93.1,4.81,4.81,0,0,0,2.64-.81,3.83,3.83,0,0,0,1.83-3,4.08,4.08,0,0,0-.58-2.41A108.86,108.86,0,0,1,349.89,381c0,.44.05.89.05,1.34C349.94,397.17,331.13,409.2,307.93,409.2Z" transform="translate(-264.25 -353.77)" style="fill:#2d3277"/><path d="M501.37,362.55c-1.59-2-4-3-7.22-3s-5.63,1-7.22,3a11.67,11.67,0,0,0,0,14.12q2.38,2.94,7.22,2.93c3.23,0,5.63-1,7.22-2.93a11.67,11.67,0,0,0,0-14.12ZM497.44,374a4.35,4.35,0,0,1-6.63,0,8.77,8.77,0,0,1,0-8.71,4.37,4.37,0,0,1,6.63,0,7.08,7.08,0,0,1,1.16,4.35A7.18,7.18,0,0,1,497.44,374Z" transform="translate(-264.25 -353.77)" style="fill:#2d3277"/><path d="M460.83,360.89a12,12,0,0,0-5.52-1.22c-3.18,0-5.43.84-6.74,2.49a7.23,7.23,0,0,0-1.39,4.07h4.76a3.68,3.68,0,0,1,.7-1.74,3.14,3.14,0,0,1,2.51-.87,5.26,5.26,0,0,1,2.4.44,1.66,1.66,0,0,1,.81,1.6,1.49,1.49,0,0,1-1.06,1.4,7.55,7.55,0,0,1-2,.43l-1.69.2a12.09,12.09,0,0,0-4.36,1.21,5.36,5.36,0,0,0-2.7,5,5.19,5.19,0,0,0,1.68,4.15,6.69,6.69,0,0,0,4.25,1.47c10.77.48,10.64-5.67,10.73-7v-7.08Q463.24,362.13,460.83,360.89Zm-2.51,10.74a3.94,3.94,0,0,1-1.41,3.41,5.16,5.16,0,0,1-3,.93,2.72,2.72,0,0,1-1.74-.57,2.2,2.2,0,0,1-.71-1.83,2.24,2.24,0,0,1,1.17-2.09,7.22,7.22,0,0,1,2.27-.67l1.12-.2a8.75,8.75,0,0,0,1.32-.34,5.26,5.26,0,0,0,1-.47Z" transform="translate(-264.25 -353.77)" style="fill:#2d3277"/><path d="M436.29,363.88A3.24,3.24,0,0,1,439,365a4.26,4.26,0,0,1,.75,1.9h5.3c-.29-2.68-1.23-4.55-2.81-5.6a10.86,10.86,0,0,0-6.11-1.59,8.92,8.92,0,0,0-6.88,2.69q-2.49,2.7-2.5,7.53a10.44,10.44,0,0,0,2.26,7c1.5,1.79,3.86,2.69,7,2.69s5.6-1.07,7.23-3.22a8,8,0,0,0,1.71-4.24h-5.29a4.47,4.47,0,0,1-.93,2.42,3.17,3.17,0,0,1-2.58.93,3.46,3.46,0,0,1-3.5-2.35,8.89,8.89,0,0,1-.51-3.32,9.74,9.74,0,0,1,.51-3.48A3.55,3.55,0,0,1,436.29,363.88Z" transform="translate(-264.25 -353.77)" style="fill:#2d3277"/><path d="M425.35,359.74c-10.9,0-10.26,9.65-10.26,9.65v9.8H420V370a7.62,7.62,0,0,1,.57-3.35q1-1.93,4-1.93l.59,0c.25,0,.51,0,.84.07v-5l-.43,0Z" transform="translate(-264.25 -353.77)" style="fill:#2d3277"/><path d="M411.13,363.39a7.72,7.72,0,0,0-3.25-2.79,10.82,10.82,0,0,0-4.41-.88,9.1,9.1,0,0,0-6.73,2.6q-2.59,2.6-2.59,7.49,0,5.22,2.87,7.53a10.24,10.24,0,0,0,6.62,2.31,9.11,9.11,0,0,0,7.07-2.74,6.62,6.62,0,0,0,1.71-2.85h-5.25a3.54,3.54,0,0,1-.67.75,4.2,4.2,0,0,1-2.76.75,4.7,4.7,0,0,1-2.64-.63,4.47,4.47,0,0,1-2-3.93h13.69a24.83,24.83,0,0,0-.16-3.73A9.29,9.29,0,0,0,411.13,363.39Zm-11.91,4.37a5.14,5.14,0,0,1,1.31-2.91,3.89,3.89,0,0,1,2.93-1.07,4.26,4.26,0,0,1,2.91,1,4.1,4.1,0,0,1,1.31,3Z" transform="translate(-264.25 -353.77)" style="fill:#2d3277"/><path d="M384.32,359.67a7.18,7.18,0,0,0-5.61,2.62,7,7,0,0,0-5.62-2.62c-4.83,0-7.95,3.55-7.95,8.25v11.27h4.52V367.81a3.31,3.31,0,0,1,3.43-3.51c3,0,3.29,2.47,3.29,3.51v11.38h4.52V367.81a3.33,3.33,0,0,1,3.43-3.51,3.18,3.18,0,0,1,3.33,3.51v11.38h4.52V367.92C392.16,363.07,389.25,359.67,384.32,359.67Z" transform="translate(-264.25 -353.77)" style="fill:#2d3277"/><path d="M478,357.26v5.3a5.8,5.8,0,0,0-2.15-2.08,6,6,0,0,0-3-.75,7.22,7.22,0,0,0-5.92,2.75,12.15,12.15,0,0,0-2.22,7.7A10.25,10.25,0,0,0,467,377c1.5,1.77,4.45,2.55,7.06,2.55,9.12,0,9-7.81,9-7.81v-18S478,353.26,478,357.26Zm-1,16.74a3.62,3.62,0,0,1-3.17,1.55A3.48,3.48,0,0,1,470.8,374a7.94,7.94,0,0,1-1-4.3,7.57,7.57,0,0,1,1-4,3.46,3.46,0,0,1,3.16-1.63,3.75,3.75,0,0,1,2.49.9c1.16,1,1.75,2.76,1.75,5.07A6.77,6.77,0,0,1,477.08,374Z" transform="translate(-264.25 -353.77)" style="fill:#2d3277"/><path d="M375.59,386.75c-4.07-.19-6.14.78-7.48,1.8-1.85,1.41-3,3.5-3,6.84v17.2h2.4a2.62,2.62,0,0,0,1.76-.65,2.35,2.35,0,0,0,.79-1.78v-6.43a5.41,5.41,0,0,0,2.32,2.23,7.5,7.5,0,0,0,3.2.64,6.85,6.85,0,0,0,5.6-2.73,11.57,11.57,0,0,0,2.18-7.32,10.55,10.55,0,0,0-2.34-7.17A7.54,7.54,0,0,0,375.59,386.75Zm1.68,14.11a3.49,3.49,0,0,1-3,1.51,3.62,3.62,0,0,1-3.13-1.51,6.46,6.46,0,0,1-1.09-4.09,7.28,7.28,0,0,1,1-4.31,3.55,3.55,0,0,1,3.05-1.51,3.62,3.62,0,0,1,3.13,1.51,7.27,7.27,0,0,1,1.09,4.31A6.8,6.8,0,0,1,377.27,400.86Z" transform="translate(-264.25 -353.77)" style="fill:#2d3277"/><path d="M418.08,388.53a9.07,9.07,0,0,0-6.35-1.86c-3,.09-5.18.92-6.53,2.76a11.82,11.82,0,0,0-2,7.2,11.06,11.06,0,0,0,1.53,6.14,8,8,0,0,0,3.68,3.18,7,7,0,0,0,4.32.36,5.43,5.43,0,0,0,3.46-2.51V405a5.88,5.88,0,0,1-1.1,3.45,3.86,3.86,0,0,1-2.14,1.39,3.7,3.7,0,0,1-2.36-.29A3.59,3.59,0,0,1,408.8,408h-5.22c1.35,4.06,3.77,5.85,8.14,6.17,7,.5,9.29-5.46,9.29-8.68V395.41C421,392.07,419.92,389.92,418.08,388.53ZM416,398.46a5.38,5.38,0,0,1-.93,2.47c-.9,1.24-2.31,1.68-4.21,1.33s-2.86-2.19-2.86-5.48a9.29,9.29,0,0,1,.86-4.09,3.29,3.29,0,0,1,3.29-1.79,3.12,3.12,0,0,1,2.71,1.29,6.56,6.56,0,0,1,1.18,2.95A10.24,10.24,0,0,1,416,398.46Z" transform="translate(-264.25 -353.77)" style="fill:#2d3277"/><path d="M398.93,388a12.05,12.05,0,0,0-5.52-1.22q-4.77,0-6.74,2.49a7.23,7.23,0,0,0-1.39,4.06H390a3.59,3.59,0,0,1,.7-1.72,3.14,3.14,0,0,1,2.51-.87,5.23,5.23,0,0,1,2.4.44,1.66,1.66,0,0,1,.81,1.6,1.49,1.49,0,0,1-1.06,1.4,8,8,0,0,1-2,.43l-1.68.2a12.32,12.32,0,0,0-4.36,1.21,5.36,5.36,0,0,0-2.7,5,5.19,5.19,0,0,0,1.68,4.15,6.69,6.69,0,0,0,4.25,1.47c10.75.48,10.64-5.67,10.73-7v-7.08Q401.33,389.26,398.93,388Zm-2.51,10.74a3.94,3.94,0,0,1-1.41,3.41,5.16,5.16,0,0,1-3,.93,2.72,2.72,0,0,1-1.74-.57,2.17,2.17,0,0,1-.71-1.83,2.24,2.24,0,0,1,1.17-2.09,7.22,7.22,0,0,1,2.26-.67l1.12-.2a7.62,7.62,0,0,0,1.32-.34,5.27,5.27,0,0,0,1-.47v1.84Z" transform="translate(-264.25 -353.77)" style="fill:#2d3277"/><path d="M439.73,389.59c-1.59-2-4-3-7.23-3s-5.63,1-7.22,3a11.65,11.65,0,0,0,0,14.11c1.59,1.95,4,2.93,7.22,2.93s5.63-1,7.23-2.93a11.65,11.65,0,0,0,0-14.11ZM435.8,401a4.35,4.35,0,0,1-6.63,0,8.68,8.68,0,0,1,0-8.7,4.37,4.37,0,0,1,6.63,0,7.08,7.08,0,0,1,1.16,4.35A7.24,7.24,0,0,1,435.8,401Z" transform="translate(-264.25 -353.77)" style="fill:#2d3277"/></svg>